# xmcd CD database file
#
# Track frame offsets:
#	150
#	28621
#	56044
#	80903
#	106860
#	132001
#	156828
#	180259
#	205393
#	236837
#	261100
#	294555
#
# Disc length: 4358 seconds
#
# Revision: 0
# Processed by: cddbd v1.5.2PL0 Copyright (c) Steve Scherf et al.
# Submitted via: CDex 1.79
#
DISCID=a711040c
DTITLE=The Happy Pals - Miss Noonie
DYEAR=2011
DGENRE=Jazz
TTITLE0=Over in the Gloryland
TTITLE1=Far Away Blues
TTITLE2=Apple Blossom Time
TTITLE3=On the Road to Home Sweet Home
TTITLE4=Blue Hawaii
TTITLE5=I Couldn't Keep It to Myself
TTITLE6=Nar Lygterne Taendes
TTITLE7=Beneath Hawaiian Skies
TTITLE8=The Old Rugged Cross
TTITLE9=One Sweet Letter from You
TTITLE10=Milk Cow Blues
TTITLE11=Kid Thomas Boogie Woogie
EXTD=YEAR: 2011
EXTT0=
EXTT1=
EXTT2=
EXTT3=
EXTT4=
EXTT5=
EXTT6=
EXTT7=
EXTT8=
EXTT9=
EXTT10=
EXTT11=
PLAYORDER=
